<svg width="8" height="11" viewBox="0 0 8 11" fill="none" xmlns="http://www.w3.org/2000/svg">
<path d="M6.62145 9.705C6.77079 9.705 6.88745 9.74933 6.97145 9.838C7.05545 9.922 7.09745 10.034 7.09745 10.174V11H0.349453V10.531C0.349453 10.4377 0.36812 10.3397 0.405453 10.237C0.442786 10.1297 0.505786 10.034 0.594453 9.95L3.77245 6.765C4.03845 6.499 4.27879 6.24233 4.49345 5.995C4.70812 5.74767 4.89012 5.50267 5.03945 5.26C5.18879 5.01267 5.30312 4.76067 5.38245 4.504C5.46645 4.24733 5.50845 3.97667 5.50845 3.692C5.50845 3.412 5.46412 3.167 5.37545 2.957C5.28679 2.74233 5.16545 2.565 5.01145 2.425C4.85745 2.285 4.67545 2.18 4.46545 2.11C4.25545 2.04 4.02912 2.005 3.78645 2.005C3.54379 2.005 3.31979 2.04 3.11445 2.11C2.91379 2.18 2.73412 2.278 2.57545 2.404C2.41679 2.53 2.28379 2.67933 2.17645 2.852C2.06912 3.02467 1.99212 3.21133 1.94545 3.412C1.88012 3.58933 1.79612 3.70833 1.69345 3.769C1.59545 3.82967 1.45079 3.84367 1.25945 3.811L0.545453 3.685C0.610786 3.21833 0.73912 2.80767 0.930453 2.453C1.12179 2.09833 1.36212 1.802 1.65145 1.564C1.94079 1.32133 2.27212 1.13933 2.64545 1.018C3.02345 0.896666 3.42945 0.836 3.86345 0.836C4.30212 0.836 4.70579 0.901333 5.07445 1.032C5.44779 1.158 5.76979 1.34233 6.04045 1.585C6.31112 1.82767 6.52345 2.124 6.67745 2.474C6.83145 2.81933 6.90845 3.21133 6.90845 3.65C6.90845 4.02333 6.85245 4.371 6.74045 4.693C6.63312 5.01033 6.48379 5.31367 6.29245 5.603C6.10579 5.89233 5.88645 6.17467 5.63445 6.45C5.38712 6.72067 5.12345 6.996 4.84345 7.276L2.29545 9.88C2.49145 9.82867 2.68745 9.78667 2.88345 9.754C3.08412 9.72133 3.27312 9.705 3.45045 9.705H6.62145Z" fill="white"/>
</svg>
