<svg width="8" height="12" viewBox="0 0 8 12" fill="none" xmlns="http://www.w3.org/2000/svg">
<path d="M3.77945 10.027C4.09679 10.027 4.37912 9.98267 4.62645 9.894C4.87379 9.80533 5.08379 9.68167 5.25645 9.523C5.42912 9.35967 5.55979 9.166 5.64845 8.942C5.73712 8.718 5.78145 8.473 5.78145 8.207C5.78145 7.88033 5.72779 7.60033 5.62045 7.367C5.51312 7.129 5.36845 6.93533 5.18645 6.786C5.00445 6.632 4.79212 6.52 4.54945 6.45C4.30679 6.37533 4.05012 6.338 3.77945 6.338C3.50412 6.338 3.24512 6.37533 3.00245 6.45C2.75979 6.52 2.54745 6.632 2.36545 6.786C2.18345 6.93533 2.03879 7.129 1.93145 7.367C1.82879 7.60033 1.77745 7.88033 1.77745 8.207C1.77745 8.473 1.82179 8.718 1.91045 8.942C1.99912 9.166 2.12979 9.35967 2.30245 9.523C2.47512 9.68167 2.68512 9.80533 2.93245 9.894C3.17979 9.98267 3.46212 10.027 3.77945 10.027ZM3.77945 1.886C3.49012 1.886 3.23579 1.93033 3.01645 2.019C2.80179 2.103 2.62212 2.21967 2.47745 2.369C2.33279 2.51833 2.22312 2.691 2.14845 2.887C2.07845 3.083 2.04345 3.293 2.04345 3.517C2.04345 3.73633 2.07379 3.951 2.13445 4.161C2.19979 4.36633 2.30012 4.55067 2.43545 4.714C2.57545 4.87267 2.75512 5.001 2.97445 5.099C3.19379 5.197 3.46212 5.246 3.77945 5.246C4.09212 5.246 4.35812 5.197 4.57745 5.099C4.80145 5.001 4.98112 4.87267 5.11645 4.714C5.25645 4.55067 5.35679 4.36633 5.41745 4.161C5.48279 3.951 5.51545 3.73633 5.51545 3.517C5.51545 3.293 5.47812 3.083 5.40345 2.887C5.33345 2.691 5.22612 2.51833 5.08145 2.369C4.93679 2.21967 4.75479 2.103 4.53545 2.019C4.32079 1.93033 4.06879 1.886 3.77945 1.886ZM5.28445 5.757C5.90979 5.94367 6.38345 6.24467 6.70545 6.66C7.03212 7.07533 7.19545 7.60033 7.19545 8.235C7.19545 8.67367 7.11145 9.07033 6.94345 9.425C6.78012 9.77967 6.54679 10.083 6.24345 10.335C5.94479 10.5823 5.58545 10.7737 5.16545 10.909C4.74545 11.0443 4.28345 11.112 3.77945 11.112C3.27545 11.112 2.81345 11.0443 2.39345 10.909C1.97345 10.7737 1.61179 10.5823 1.30845 10.335C1.00979 10.083 0.776453 9.77967 0.608453 9.425C0.44512 9.07033 0.363453 8.67367 0.363453 8.235C0.363453 7.60033 0.524453 7.07533 0.846453 6.66C1.17312 6.24467 1.64912 5.94367 2.27445 5.757C1.75645 5.561 1.36679 5.26933 1.10545 4.882C0.84412 4.49 0.713453 4.02567 0.713453 3.489C0.713453 3.11567 0.785786 2.768 0.930453 2.446C1.07979 2.11933 1.28745 1.837 1.55345 1.599C1.82412 1.361 2.14845 1.17433 2.52645 1.039C2.90445 0.903666 3.32212 0.836 3.77945 0.836C4.23679 0.836 4.65445 0.903666 5.03245 1.039C5.41045 1.17433 5.73245 1.361 5.99845 1.599C6.26912 1.837 6.47679 2.11933 6.62145 2.446C6.77079 2.768 6.84545 3.11567 6.84545 3.489C6.84545 4.02567 6.71479 4.49 6.45345 4.882C6.19212 5.26933 5.80245 5.561 5.28445 5.757Z" fill="#FFA010"/>
</svg>
