<svg width="10" height="3" viewBox="0 0 10 3" fill="none" xmlns="http://www.w3.org/2000/svg">
<path d="M0.223985 1.181C0.223985 1.055 0.247318 0.936 0.293985 0.824C0.340651 0.712 0.403651 0.614 0.482985 0.53C0.566985 0.446 0.664985 0.380667 0.776985 0.334C0.888985 0.282667 1.01032 0.257 1.14098 0.257C1.26698 0.257 1.38598 0.282667 1.49798 0.334C1.60998 0.380667 1.70798 0.446 1.79198 0.53C1.87598 0.614 1.94132 0.712 1.98798 0.824C2.03932 0.936 2.06498 1.055 2.06498 1.181C2.06498 1.31167 2.03932 1.433 1.98798 1.545C1.94132 1.657 1.87598 1.755 1.79198 1.839C1.70798 1.923 1.60998 1.98833 1.49798 2.035C1.38598 2.08167 1.26698 2.105 1.14098 2.105C1.01032 2.105 0.888985 2.08167 0.776985 2.035C0.664985 1.98833 0.566985 1.923 0.482985 1.839C0.403651 1.755 0.340651 1.657 0.293985 1.545C0.247318 1.433 0.223985 1.31167 0.223985 1.181ZM7.48998 1.181C7.48998 1.055 7.51332 0.936 7.55998 0.824C7.60665 0.712 7.66965 0.614 7.74899 0.53C7.83299 0.446 7.93098 0.380667 8.04298 0.334C8.15498 0.282667 8.27632 0.257 8.40698 0.257C8.53299 0.257 8.65199 0.282667 8.76398 0.334C8.87599 0.380667 8.97399 0.446 9.05799 0.53C9.14199 0.614 9.20732 0.712 9.25399 0.824C9.30532 0.936 9.33098 1.055 9.33098 1.181C9.33098 1.31167 9.30532 1.433 9.25399 1.545C9.20732 1.657 9.14199 1.755 9.05799 1.839C8.97399 1.923 8.87599 1.98833 8.76398 2.035C8.65199 2.08167 8.53299 2.105 8.40698 2.105C8.27632 2.105 8.15498 2.08167 8.04298 2.035C7.93098 1.98833 7.83299 1.923 7.74899 1.839C7.66965 1.755 7.60665 1.657 7.55998 1.545C7.51332 1.433 7.48998 1.31167 7.48998 1.181ZM3.85698 1.181C3.85698 1.055 3.88032 0.936 3.92698 0.824C3.97365 0.712 4.03665 0.614 4.11598 0.53C4.19998 0.446 4.29798 0.380667 4.40998 0.334C4.52198 0.282667 4.64332 0.257 4.77398 0.257C4.89999 0.257 5.01899 0.282667 5.13098 0.334C5.24298 0.380667 5.34098 0.446 5.42498 0.53C5.50898 0.614 5.57432 0.712 5.62098 0.824C5.67232 0.936 5.69798 1.055 5.69798 1.181C5.69798 1.31167 5.67232 1.433 5.62098 1.545C5.57432 1.657 5.50898 1.755 5.42498 1.839C5.34098 1.923 5.24298 1.98833 5.13098 2.035C5.01899 2.08167 4.89999 2.105 4.77398 2.105C4.64332 2.105 4.52198 2.08167 4.40998 2.035C4.29798 1.98833 4.19998 1.923 4.11598 1.839C4.03665 1.755 3.97365 1.657 3.92698 1.545C3.88032 1.433 3.85698 1.31167 3.85698 1.181Z" fill="#4F4F4F"/>
</svg>
