<svg width="19" height="17" viewBox="0 0 19 17" fill="none" xmlns="http://www.w3.org/2000/svg">
<path fill-rule="evenodd" clip-rule="evenodd" d="M15.965 3.13691C16.7318 2.633 17.3204 1.83383 17.5965 0.882098C16.8783 1.34966 16.0852 1.688 15.2386 1.87107C14.5631 1.07774 13.5976 0.583252 12.5291 0.583252C10.4792 0.583252 8.81841 2.40909 8.81841 4.66075C8.81841 4.98069 8.84899 5.2921 8.91276 5.5896C5.82846 5.41909 3.09357 3.79742 1.26169 1.32857C0.942019 1.933 0.759348 2.633 0.759348 3.37966C0.759348 4.79402 1.41464 6.04235 2.41071 6.77466C1.80238 6.75402 1.22981 6.56825 0.728328 6.26492V6.31518C0.728328 8.29133 2.00702 9.93992 3.7075 10.3133C3.39515 10.4088 3.06815 10.4568 2.72823 10.4568C2.48955 10.4568 2.25561 10.4322 2.03072 10.3846C2.50204 12.004 3.87337 13.1846 5.49845 13.216C4.22708 14.3104 2.62655 14.9615 0.887734 14.9615C0.588309 14.9615 0.2919 14.944 0.00195312 14.9054C1.64513 16.0618 3.59592 16.7371 5.69275 16.7371C12.5218 16.7371 16.2541 10.5233 16.2541 5.1346C16.2541 4.95735 16.2519 4.78101 16.2446 4.60735C16.9697 4.0321 17.6008 3.31325 18.0967 2.49524C17.4306 2.81966 16.715 3.03909 15.965 3.13691Z" fill="white"/>
</svg>
